<svg width="197" height="115" viewBox="0 0 197 115" fill="none" xmlns="http://www.w3.org/2000/svg">
<path d="M31.2188 68.4688H43.3125L48.4688 75.125C51.7031 71.3281 53.5312 65.6094 53.5312 58.0625C53.5312 43.5312 46.6875 35.6562 36.1875 35.6562C25.6875 35.6562 18.75 43.5312 18.75 58.0625C18.75 72.5938 25.6875 80.4688 36.1875 80.4688C37.5469 80.4688 38.8594 80.3281 40.125 80.0938L31.2188 68.4688ZM67.875 58.0625C67.875 70.1562 63.75 79.4844 57.0938 85.3438L66.75 97.625H53.5312L48.0938 90.7812C44.4375 92.2344 40.4062 92.9375 36.1875 92.9375C18.0938 92.9375 4.40625 80.0938 4.40625 58.0625C4.40625 35.9375 18.0938 23.1875 36.1875 23.1875C54.0938 23.1875 67.875 35.9375 67.875 58.0625ZM120.094 24.125H134.25V68.1875C134.25 83.0938 123 92.9375 106.125 92.9375C89.25 92.9375 78.0938 83.0938 78.0938 68.1875V24.125H92.1562V67.0625C92.1562 74.8438 97.6875 80.5625 106.125 80.5625C114.656 80.5625 120.094 74.8438 120.094 67.0625V24.125ZM145.688 92V24.125H191.25V35.75H159.75V52.25H188.906V63.875H159.75V80.375H191.344V92H145.688Z" fill="url(#paint0_linear_2133_2252)"/>
<defs>
<linearGradient id="paint0_linear_2133_2252" x1="-18.4247" y1="115.628" x2="205.996" y2="144.804" gradientUnits="userSpaceOnUse">
<stop stop-color="#0DF9FA"/>
<stop offset="1" stop-color="#0073F5"/>
</linearGradient>
</defs>
</svg>
